<?xml version="1.0" standalone="no"?>
<!DOCTYPE svg PUBLIC "-//W3C//DTD SVG 20010904//EN" "http://www.w3.org/TR/2001/REC-SVG-20010904/DTD/svg10.dtd">
<svg 
  version="1.0" 
  xmlns="http://www.w3.org/2000/svg" 
  width="169.000000pt" 
  height="177.000000pt" 
  viewBox="0 0 169.000000 177.000000"
  preserveAspectRatio="xMidYMid meet"
>
  <g transform="translate(0.000000,177.000000) scale(0.100000,-0.100000)"
  fill="#FF69B4" stroke="none">
    <path d="M474 1649 c-10 -60 -59 -120 -119 -143 -28 -11 -51 -21 -53 -22 -7 -5 22 -50 51 -82 84 -88 231 -45 268 78 23 75 -24 163 -103 195 l-38 15 -6 -41z"/>
    <path d="M1104 1661 c-96 -59 -110 -177 -30 -257 66 -66 164 -64 228 4 56 59 56 69 -6 96 -62 27 -106 79 -115 134 -7 44 -31 52 -77 23z"/>
    <path d="M357 1269 c-146 -34 -250 -158 -278 -329 -27 -166 75 -344 219 -386 133 -39 274 24 341 150 43 82 34 166 -26 244 -36 47 -122 86 -171 77 -86 -15 -150 -91 -138 -164 4 -26 19 -48 56 -83 53 -49 61 -75 32 -101 -30 -28 -74 -21 -119 18 -57 49 -83 106 -83 183 0 109 54 188 163 238 145 66 322 -7 395
      -165 23 -48 27 -70 26 -146 0 -79 -3 -97 -27 -143 -72 -139 -218 -232 -361 -232 l-39 0 24 -26 c56 -62 429 -344 454 -344 22 0 315 218 438 326 l47 41 -74 6 c-132 10 -260 95 -327 220 -31 57 -34 69 -34 152 0 76 4 99 26 146 35 73 87 125 166 162 57 26 72 29 131 25 110 -8 193 -61 238 -154 23 -48 26 -63
      22 -123 -6 -81 -31 -129 -91 -172 -64 -47 -117 -36 -117 24 0 21 12 39 45 70 33 31 47 52 52 78 11 71 -51 147 -134 164 -95 19 -206 -71 -228 -187 -11 -56 17 -137 66 -192 112 -127 292 -140 410 -29 139 130 145 375 13 548 -32 42 -119 91 -185 105 -65 13 -162 1 -231 -29 -61 -26 -141 -92 -179 -148 -18 -26
      -37 -51 -42 -55 -15 -10 -33 1 -44 25 -22 48 -104 125 -170 159 -100 52 -182 67 -266 47z"/>
  </g>
</svg>
